<svg width="40" height="40" viewBox="0 0 40 40" fill="none" xmlns="http://www.w3.org/2000/svg">
<path fill-rule="evenodd" clip-rule="evenodd" d="M19.9999 3.33333C10.7916 3.33333 3.33325 10.7917 3.33325 20C3.33325 27.375 8.10408 33.6042 14.7291 35.8125C15.5624 35.9583 15.8749 35.4583 15.8749 35.0208C15.8749 34.625 15.8541 33.3125 15.8541 31.9167C11.6666 32.6875 10.5833 30.8958 10.2499 29.9583C10.0624 29.4792 9.24992 28 8.54159 27.6042C7.95825 27.2917 7.12492 26.5208 8.52075 26.5C9.83325 26.4792 10.7708 27.7083 11.0833 28.2083C12.5833 30.7292 14.9791 30.0208 15.9374 29.5833C16.0833 28.5 16.5208 27.7708 16.9999 27.3542C13.2916 26.9375 9.41659 25.5 9.41659 19.125C9.41659 17.3125 10.0624 15.8125 11.1249 14.6458C10.9583 14.2292 10.3749 12.5208 11.2916 10.2292C11.2916 10.2292 12.6874 9.79166 15.8749 11.9375C17.2083 11.5625 18.6249 11.375 20.0416 11.375C21.4583 11.375 22.8749 11.5625 24.2083 11.9375C27.3958 9.77083 28.7916 10.2292 28.7916 10.2292C29.7083 12.5208 29.1249 14.2292 28.9583 14.6458C30.0208 15.8125 30.6666 17.2917 30.6666 19.125C30.6666 25.5208 26.7708 26.9375 23.0624 27.3542C23.6666 27.875 24.1874 28.875 24.1874 30.4375C24.1874 32.6667 24.1666 34.4583 24.1666 35.0208C24.1666 35.4583 24.4791 35.9792 25.3124 35.8125C28.6211 34.6955 31.4961 32.5691 33.5329 29.7325C35.5697 26.896 36.6657 23.4921 36.6666 20C36.6666 10.7917 29.2083 3.33333 19.9999 3.33333Z" fill="#444555"/>
</svg>
