<svg width="40" height="40" viewBox="0 0 40 40" fill="none" xmlns="http://www.w3.org/2000/svg">
<path fill-rule="evenodd" clip-rule="evenodd" d="M19.9999 3.33333C15.4733 3.33333 14.9066 3.35222 13.1288 3.43333C11.3544 3.51444 10.1421 3.79666 9.08214 4.20888C7.97103 4.62666 6.96325 5.28222 6.12992 6.13111C5.28239 6.96348 4.62643 7.97054 4.2077 9.08222C3.7977 10.1422 3.51436 11.3556 3.43325 13.13C3.35325 14.9067 3.33325 15.4722 3.33325 20C3.33325 24.5278 3.35214 25.0933 3.43325 26.8711C3.51436 28.6456 3.79659 29.8578 4.20881 30.9178C4.62659 32.0289 5.28214 33.0367 6.13103 33.87C6.96342 34.7175 7.97048 35.3735 9.08214 35.7922C10.1421 36.2033 11.3544 36.4856 13.1288 36.5667C14.9066 36.6478 15.4733 36.6667 19.9999 36.6667C24.5266 36.6667 25.0933 36.6478 26.871 36.5667C28.6455 36.4856 29.8577 36.2033 30.9177 35.7911C32.0288 35.3733 33.0366 34.7178 33.8699 33.8689C34.7175 33.0365 35.3734 32.0294 35.7921 30.9178C36.2033 29.8578 36.4855 28.6456 36.5666 26.8711C36.6477 25.0933 36.6666 24.5267 36.6666 20C36.6666 15.4733 36.6477 14.9067 36.5666 13.1289C36.4855 11.3544 36.2033 10.1422 35.791 9.08222C35.3726 7.97007 34.7166 6.96257 33.8688 6.13C33.0364 5.28246 32.0294 4.6265 30.9177 4.20777C29.8577 3.79777 28.6444 3.51444 26.8699 3.43333C25.0933 3.35333 24.5277 3.33333 19.9999 3.33333ZM19.9999 6.33666C24.4499 6.33666 24.9777 6.35333 26.7355 6.43333C28.3599 6.50777 29.2421 6.77777 29.8299 7.00777C30.6077 7.30888 31.1633 7.67111 31.7466 8.25333C32.3299 8.83666 32.691 9.39222 32.9921 10.17C33.221 10.7578 33.4921 11.64 33.5666 13.2644C33.6466 15.0222 33.6633 15.55 33.6633 20C33.6633 24.45 33.6466 24.9778 33.5666 26.7356C33.4921 28.36 33.2221 29.2422 32.9921 29.83C32.7254 30.5539 32.2998 31.2089 31.7466 31.7467C31.2089 32.3 30.5539 32.7256 29.8299 32.9922C29.2421 33.2211 28.3599 33.4922 26.7355 33.5667C24.9777 33.6467 24.451 33.6633 19.9999 33.6633C15.5488 33.6633 15.0221 33.6467 13.2644 33.5667C11.6399 33.4922 10.7577 33.2222 10.1699 32.9922C9.44598 32.7255 8.79104 32.2999 8.25325 31.7467C7.70012 31.2088 7.27451 30.5539 7.0077 29.83C6.77881 29.2422 6.5077 28.36 6.43325 26.7356C6.35325 24.9778 6.33659 24.45 6.33659 20C6.33659 15.55 6.35325 15.0222 6.43325 13.2644C6.5077 11.64 6.7777 10.7578 7.0077 10.17C7.30881 9.39222 7.67103 8.83666 8.25325 8.25333C8.79097 7.70005 9.44593 7.27441 10.1699 7.00777C10.7577 6.77888 11.6399 6.50777 13.2644 6.43333C15.0221 6.35333 15.5499 6.33666 19.9999 6.33666Z" fill="#444555"/>
<path fill-rule="evenodd" clip-rule="evenodd" d="M19.9999 25.5611C19.2697 25.5611 18.5465 25.4173 17.8718 25.1378C17.1971 24.8583 16.584 24.4487 16.0676 23.9323C15.5512 23.4159 15.1416 22.8028 14.8621 22.1281C14.5827 21.4534 14.4388 20.7303 14.4388 20C14.4388 19.2697 14.5827 18.5466 14.8621 17.8718C15.1416 17.1971 15.5512 16.5841 16.0676 16.0677C16.584 15.5513 17.1971 15.1417 17.8718 14.8622C18.5465 14.5827 19.2697 14.4389 19.9999 14.4389C21.4748 14.4389 22.8893 15.0248 23.9322 16.0677C24.9752 17.1106 25.5611 18.5251 25.5611 20C25.5611 21.4749 24.9752 22.8894 23.9322 23.9323C22.8893 24.9752 21.4748 25.5611 19.9999 25.5611ZM19.9999 11.4333C17.7279 11.4333 15.549 12.3359 13.9424 13.9424C12.3358 15.549 11.4333 17.728 11.4333 20C11.4333 22.272 12.3358 24.451 13.9424 26.0575C15.549 27.6641 17.7279 28.5667 19.9999 28.5667C22.272 28.5667 24.4509 27.6641 26.0575 26.0575C27.6641 24.451 28.5666 22.272 28.5666 20C28.5666 17.728 27.6641 15.549 26.0575 13.9424C24.4509 12.3359 22.272 11.4333 19.9999 11.4333ZM31.0588 11.2778C31.0588 11.8148 30.8455 12.3299 30.4657 12.7097C30.086 13.0894 29.5709 13.3028 29.0338 13.3028C28.4968 13.3028 27.9817 13.0894 27.6019 12.7097C27.2222 12.3299 27.0088 11.8148 27.0088 11.2778C27.0088 10.7407 27.2222 10.2256 27.6019 9.84588C27.9817 9.46612 28.4968 9.25277 29.0338 9.25277C29.5709 9.25277 30.086 9.46612 30.4657 9.84588C30.8455 10.2256 31.0588 10.7407 31.0588 11.2778Z" fill="#444555"/>
</svg>
