<svg width="40" height="40" viewBox="0 0 40 40" fill="none" xmlns="http://www.w3.org/2000/svg">
<path d="M36.6666 5.78431V34.2157C36.6666 34.8657 36.4084 35.4891 35.9487 35.9488C35.4891 36.4084 34.8656 36.6667 34.2156 36.6667H5.78423C5.13419 36.6667 4.51078 36.4084 4.05113 35.9488C3.59148 35.4891 3.33325 34.8657 3.33325 34.2157V5.78431C3.33325 5.13427 3.59148 4.51085 4.05113 4.0512C4.51078 3.59156 5.13419 3.33333 5.78423 3.33333L34.2156 3.33333C34.8656 3.33333 35.4891 3.59156 35.9487 4.0512C36.4084 4.51085 36.6666 5.13427 36.6666 5.78431ZM13.1372 16.0784H8.23521V31.7647H13.1372V16.0784ZM13.5784 10.6863C13.5809 10.3155 13.5105 9.9478 13.3709 9.60425C13.2314 9.26069 13.0256 8.94798 12.7652 8.68397C12.5049 8.41996 12.1951 8.20982 11.8535 8.06555C11.5119 7.92128 11.1452 7.8457 10.7744 7.84313H10.6862C9.93215 7.84313 9.20898 8.14268 8.67579 8.67587C8.1426 9.20906 7.84306 9.93222 7.84306 10.6863C7.84306 11.4403 8.1426 12.1635 8.67579 12.6967C9.20898 13.2299 9.93215 13.5294 10.6862 13.5294C11.057 13.5385 11.426 13.4745 11.7721 13.341C12.1181 13.2074 12.4345 13.007 12.7031 12.7512C12.9717 12.4954 13.1872 12.1891 13.3374 11.8499C13.4876 11.5108 13.5694 11.1453 13.5784 10.7745V10.6863ZM31.7646 22.2353C31.7646 17.5196 28.7646 15.6863 25.7842 15.6863C24.8084 15.6374 23.8368 15.8453 22.9664 16.2891C22.0959 16.7329 21.357 17.3972 20.8235 18.2157H20.6862V16.0784H16.0784V31.7647H20.9803V23.4216C20.9095 22.5671 21.1786 21.7192 21.7293 21.062C22.28 20.4048 23.0678 19.9915 23.9215 19.9118H24.1078C25.6666 19.9118 26.8234 20.8922 26.8234 23.3627V31.7647H31.7254L31.7646 22.2353Z" fill="#444555"/>
</svg>
